<?xml version="1.0" standalone="no"?>
<!DOCTYPE svg PUBLIC "-//W3C//DTD SVG 20010904//EN"
 "http://www.w3.org/TR/2001/REC-SVG-20010904/DTD/svg10.dtd">
<svg version="1.0" xmlns="http://www.w3.org/2000/svg"
 width="512.000000pt" height="512.000000pt" viewBox="0 0 512.000000 512.000000"
 preserveAspectRatio="xMidYMid meet">

<g transform="translate(0.000000,512.000000) scale(0.100000,-0.100000)"
fill="#000000" stroke="none">
<path d="M1680 5105 c-461 -78 -817 -437 -890 -898 -20 -119 -8 -329 25 -447
106 -388 425 -688 820 -771 115 -25 308 -26 424 -4 447 86 795 452 862 904 17
120 7 302 -25 423 -91 355 -366 645 -717 757 -153 49 -344 63 -499 36z"/>
<path d="M3760 2440 l0 -140 345 0 345 0 0 140 0 140 -345 0 -345 0 0 -140z"/>
<path d="M1630 2249 c-335 -43 -647 -172 -905 -374 -156 -122 -328 -316 -435
-490 -149 -242 -262 -597 -277 -874 l-6 -104 264 6 c145 4 846 7 1557 7 l1292
0 0 634 0 635 -55 36 c-62 42 -85 70 -120 148 -21 48 -33 60 -106 107 -155 99
-380 193 -562 235 -182 42 -470 57 -647 34z"/>
<path d="M3207 2120 c-127 -25 -150 -208 -34 -264 32 -14 119 -16 934 -16 878
0 899 1 931 20 93 57 95 186 3 242 l-36 23 -880 1 c-484 1 -897 -1 -918 -6z"/>
<path d="M3290 899 c0 -759 0 -772 21 -808 11 -20 36 -48 56 -61 l37 -25 683
-3 c658 -2 686 -2 728 17 29 13 53 34 72 62 l28 43 3 773 3 773 -816 0 -815 0
0 -771z m455 46 l25 -24 0 -309 c0 -307 0 -309 -22 -329 -32 -29 -53 -34 -88
-21 -57 19 -60 37 -60 357 l0 289 26 31 c33 40 83 43 119 6z m412 1 l28 -24 3
-293 c3 -325 1 -342 -54 -365 -37 -15 -58 -11 -91 19 -23 20 -23 22 -23 329
l0 309 25 24 c31 32 75 32 112 1z m418 -1 l25 -24 0 -303 c0 -330 -1 -338 -56
-359 -35 -13 -91 12 -104 46 -6 15 -10 148 -10 315 l0 288 26 31 c33 40 83 43
119 6z"/>
</g>
</svg>
