<?xml version="1.0" standalone="no"?>
<!DOCTYPE svg PUBLIC "-//W3C//DTD SVG 20010904//EN"
 "http://www.w3.org/TR/2001/REC-SVG-20010904/DTD/svg10.dtd">
<svg version="1.0" xmlns="http://www.w3.org/2000/svg"
 width="530.000000pt" height="471.000000pt" viewBox="0 0 530.000000 471.000000"
 preserveAspectRatio="xMidYMid meet">

<g transform="translate(0.000000,471.000000) scale(0.100000,-0.100000)"
fill="#000000" stroke="none">
<path d="M1912 3714 c-94 -47 -146 -134 -145 -244 0 -110 13 -126 392 -505
l341 -340 -344 -345 c-232 -232 -352 -360 -367 -390 -17 -33 -23 -63 -23 -111
0 -116 64 -211 172 -254 53 -22 161 -17 217 10 26 12 162 139 385 361 l345
342 349 -344 c193 -189 366 -351 385 -361 45 -21 158 -29 204 -14 135 45 213
197 172 337 -16 58 -24 67 -371 414 l-354 355 345 345 c238 238 352 359 368
390 17 34 22 62 21 115 -1 117 -56 201 -162 247 -55 25 -168 22 -224 -6 -21
-10 -188 -167 -385 -361 l-348 -344 -345 344 c-255 254 -357 349 -390 364 -68
31 -171 29 -238 -5z"/>
</g>
</svg>
