<?xml version="1.0" standalone="no"?>
<!DOCTYPE svg PUBLIC "-//W3C//DTD SVG 20010904//EN"
 "http://www.w3.org/TR/2001/REC-SVG-20010904/DTD/svg10.dtd">
<svg version="1.0" xmlns="http://www.w3.org/2000/svg"
 width="434.000000pt" height="428.000000pt" viewBox="0 0 434.000000 428.000000"
 preserveAspectRatio="xMidYMid meet">

<g transform="translate(0.000000,428.000000) scale(0.100000,-0.100000)"
fill="#000000" stroke="none">
<path d="M824 3920 c-155 -23 -282 -151 -314 -315 -8 -44 -10 -453 -8 -1500
l3 -1440 33 -67 c41 -85 117 -155 209 -194 l68 -29 1325 0 c1252 0 1328 1
1380 18 107 35 193 120 242 237 l23 55 2 1245 2 1245 -455 378 -454 377 -1003
-1 c-551 -1 -1025 -5 -1053 -9z m226 -633 c0 -403 4 -437 54 -528 33 -59 114
-135 169 -159 89 -39 140 -41 767 -38 l605 3 57 23 c84 34 148 82 191 142 66
95 70 118 75 462 l4 307 274 -227 273 -227 -2 -1155 c-2 -1085 -3 -1158 -20
-1183 -30 -46 -55 -55 -157 -59 l-95 -3 -3 682 -2 683 -1095 0 -1095 0 -2
-682 -3 -683 -91 1 c-107 2 -149 19 -170 69 -12 29 -14 247 -14 1437 0 1316 1
1405 18 1438 26 52 70 70 175 70 l87 0 0 -373z m958 96 l2 -273 205 0 205 0 0
275 0 275 135 0 136 0 -3 -379 -3 -379 -24 -26 c-42 -44 -86 -47 -687 -44
-505 3 -562 5 -590 20 -62 34 -64 47 -64 447 l0 361 343 -2 342 -3 3 -272z
m962 -2188 l0 -545 -825 0 -825 0 0 545 0 545 825 0 825 0 0 -545z"/>
<path d="M1598 1458 c-4 -11 -3 -95 1 -235 l1 -33 545 0 545 0 0 140 0 140
-544 0 c-426 0 -545 -3 -548 -12z"/>
</g>
</svg>
