<?xml version="1.0" standalone="no"?>
<!DOCTYPE svg PUBLIC "-//W3C//DTD SVG 20010904//EN"
 "http://www.w3.org/TR/2001/REC-SVG-20010904/DTD/svg10.dtd">
<svg version="1.0" xmlns="http://www.w3.org/2000/svg"
 width="512.000000pt" height="512.000000pt" viewBox="0 0 512.000000 512.000000"
 preserveAspectRatio="xMidYMid meet">

<g transform="translate(0.000000,512.000000) scale(0.100000,-0.100000)"
fill="#000000" stroke="none">
<path d="M827 5104 c-258 -47 -505 -204 -646 -413 -63 -92 -127 -233 -153
-337 l-23 -89 0 -1705 0 -1705 23 -89 c24 -97 90 -245 143 -323 134 -198 358
-355 594 -415 l90 -23 1700 0 c1619 0 1704 1 1780 19 399 92 701 411 770 814
13 77 15 301 12 1763 l-2 1674 -23 85 c-27 100 -93 243 -153 331 -127 188
-344 337 -584 402 l-80 22 -1685 1 c-1414 2 -1697 0 -1763 -12z m1137 -1056
c35 -10 134 -104 710 -677 367 -366 681 -686 697 -710 41 -63 41 -139 0 -202
-47 -71 -1349 -1365 -1393 -1384 -95 -39 -198 -2 -245 90 -19 36 -21 121 -3
155 6 14 285 298 619 633 l606 607 -607 608 c-337 337 -612 620 -618 635 -34
93 10 194 105 238 47 22 73 23 129 7z"/>
</g>
</svg>
