<?xml version="1.0" standalone="no"?>
<!DOCTYPE svg PUBLIC "-//W3C//DTD SVG 20010904//EN"
 "http://www.w3.org/TR/2001/REC-SVG-20010904/DTD/svg10.dtd">
<svg version="1.0" xmlns="http://www.w3.org/2000/svg"
 width="512.000000pt" height="512.000000pt" viewBox="0 0 512.000000 512.000000"
 preserveAspectRatio="xMidYMid meet">

<g transform="translate(0.000000,512.000000) scale(0.100000,-0.100000)"
fill="#000000" stroke="none">
<path d="M825 4935 l-25 -24 0 -895 0 -894 -168 -3 -168 -4 -76 -37 c-91 -45
-147 -103 -191 -196 l-32 -67 0 -1176 0 -1175 37 -76 c45 -91 103 -147 196
-191 l67 -32 1775 0 1775 0 67 32 c123 58 203 163 229 299 7 32 156 581 332
1219 l320 1160 -10 72 c-27 190 -169 348 -358 398 -46 12 -119 15 -327 15
l-268 0 0 615 0 616 -25 24 c-23 24 -29 25 -160 25 l-135 0 0 135 c0 131 -1
137 -25 160 l-24 25 -1391 0 -1391 0 -24 -25z m2695 -1175 l0 -1040 -782 0
-782 0 -201 200 -201 200 -297 0 -297 0 0 840 0 840 1280 0 1280 0 0 -1040z
m320 -160 l0 -880 -80 0 -80 0 0 880 0 880 80 0 80 0 0 -880z m775 -430 c92
-45 162 -137 180 -234 6 -31 -33 -185 -231 -902 l-239 -865 -5 623 -5 623 -32
67 c-42 90 -100 150 -186 193 -38 19 -76 35 -83 35 -12 0 -14 45 -14 246 l0
245 283 -3 c277 -3 283 -3 332 -28z m-2930 -410 l201 -200 1033 0 c782 0 1044
-3 1075 -12 55 -16 138 -99 154 -154 17 -59 17 -1849 0 -1908 -16 -55 -99
-138 -154 -154 -60 -17 -3448 -17 -3508 0 -55 16 -138 99 -154 154 -17 60 -17
2248 0 2308 15 51 99 137 148 153 23 7 197 11 520 12 l484 1 201 -200z"/>
<path d="M1685 4631 c-92 -24 -173 -90 -215 -176 -21 -44 -25 -67 -28 -187 -4
-151 8 -215 53 -282 32 -47 32 -90 0 -121 -21 -22 -33 -25 -96 -25 -102 0
-145 -16 -204 -75 -66 -65 -75 -99 -75 -269 l0 -136 80 0 80 0 0 135 c0 131 1
137 25 160 21 22 33 25 102 25 117 0 201 46 246 135 15 29 15 29 107 30 l92 0
19 -36 c24 -48 89 -103 138 -117 21 -7 71 -12 110 -12 63 0 75 -3 96 -25 24
-23 25 -29 25 -160 l0 -135 80 0 80 0 0 136 c0 170 -9 204 -75 269 -59 59
-102 75 -204 75 -63 0 -75 3 -96 25 -32 31 -32 74 0 121 45 67 58 132 53 283
-4 132 -5 138 -38 199 -56 104 -143 160 -259 167 -36 2 -79 1 -96 -4z m163
-178 c62 -46 67 -62 67 -213 0 -124 -2 -141 -21 -166 -39 -53 -71 -69 -134
-69 -63 0 -95 16 -134 69 -18 23 -22 45 -24 138 -2 60 -1 125 2 144 8 41 50
92 91 110 40 19 120 12 153 -13z"/>
<path d="M2585 4615 c-25 -24 -25 -26 -25 -215 0 -189 0 -191 25 -215 l24 -25
351 0 351 0 24 25 c25 24 25 26 25 215 0 189 0 191 -25 215 l-24 25 -351 0
-351 0 -24 -25z m615 -215 l0 -80 -240 0 -240 0 0 80 0 80 240 0 240 0 0 -80z"/>
<path d="M2560 3920 l0 -80 400 0 400 0 0 80 0 80 -400 0 -400 0 0 -80z"/>
<path d="M2560 3600 l0 -80 400 0 400 0 0 80 0 80 -400 0 -400 0 0 -80z"/>
<path d="M2560 3280 l0 -80 400 0 400 0 0 80 0 80 -400 0 -400 0 0 -80z"/>
<path d="M2560 2960 l0 -80 400 0 400 0 0 80 0 80 -400 0 -400 0 0 -80z"/>
<path d="M1865 2295 c-25 -24 -25 -24 -25 -240 l0 -215 -215 0 c-216 0 -216 0
-240 -25 l-25 -24 0 -351 0 -351 25 -24 c24 -25 24 -25 240 -25 l215 0 0 -215
c0 -216 0 -216 25 -240 l24 -25 351 0 351 0 24 25 c25 24 25 24 25 240 l0 215
215 0 c216 0 216 0 240 25 l25 24 0 351 0 351 -25 24 c-24 25 -24 25 -240 25
l-215 0 0 215 c0 216 0 216 -25 240 l-24 25 -351 0 -351 0 -24 -25z m615 -350
c0 -216 0 -216 25 -240 24 -25 24 -25 240 -25 l215 0 0 -240 0 -240 -215 0
c-288 0 -265 23 -265 -265 l0 -215 -240 0 -240 0 0 215 c0 288 23 265 -265
265 l-215 0 0 240 0 240 215 0 c288 0 265 -23 265 265 l0 215 240 0 240 0 0
-215z"/>
</g>
</svg>
